<svg width="24" height="24" viewBox="0 0 24 24" fill="none" xmlns="http://www.w3.org/2000/svg">
<path d="M17.7614 18.91L17.4114 18.031C17.2344 17.585 16.9594 17.185 16.6074 16.859L16.5434 16.8C15.9894 16.286 15.2614 16 14.5054 16H9.49137C8.73537 16 8.00738 16.286 7.45238 16.799L7.38838 16.859C7.03638 17.185 6.76237 17.585 6.58437 18.031L6.23438 18.91" stroke="#8E8E8E" stroke-width="1.5" stroke-linecap="round" stroke-linejoin="round"></path>
<path d="M14.4749 7.44725C15.8417 8.81409 15.8417 11.0302 14.4749 12.397C13.108 13.7638 10.892 13.7638 9.52513 12.397C8.15829 11.0302 8.15829 8.81409 9.52513 7.44725C10.892 6.08041 13.108 6.08041 14.4749 7.44725" stroke="#8E8E8E" stroke-width="1.5" stroke-linecap="round" stroke-linejoin="round"></path>
<path d="M18.3639 5.63604C21.8787 9.15076 21.8787 14.8492 18.3639 18.3639C14.8492 21.8787 9.15074 21.8787 5.63604 18.3639C2.12132 14.8492 2.12132 9.15074 5.63604 5.63604C9.15076 2.12132 14.8492 2.12132 18.3639 5.63604" stroke="#8E8E8E" stroke-width="1.5" stroke-linecap="round" stroke-linejoin="round"></path>
</svg>
