<svg xmlns="http://www.w3.org/2000/svg" width="1440" height="305" viewBox="0 0 1440 305" fill="none">
<path d="M-6 245.5L122.5 125.5L330.5 161.5L380 89.5L560 161.5L699 183.5L983 143L1065.5 173L1324 83.5L1462 117.5" stroke="#F0F6FD" stroke-width="2"/>
<circle cx="122.5" cy="125" r="6" fill="#F0F6FD"/>
<circle cx="330.5" cy="161" r="6" fill="#F0F6FD"/>
<circle cx="379.5" cy="89" r="6" fill="#F0F6FD"/>
<circle cx="560.5" cy="161" r="6" fill="#F0F6FD"/>
<circle cx="699.5" cy="183" r="6" fill="#F0F6FD"/>
<circle cx="982.5" cy="143" r="6" fill="#F0F6FD"/>
<circle cx="1065.5" cy="173" r="6" fill="#F0F6FD"/>
<circle cx="1323.5" cy="83" r="6" fill="#F0F6FD"/>
<path d="M-6.5 304.5L119.5 59.5L334.5 289.5L428 135.5L638.5 231L866 172.5L1042 250.5L1187.5 59.5L1289.5 172.5L1441.5 1" stroke="#E9EFF7" stroke-width="2"/>
<circle cx="120" cy="60.5" r="6" fill="#E9EFF7"/>
<circle cx="428" cy="136.5" r="6" fill="#E9EFF7"/>
<circle cx="866" cy="172.5" r="6" fill="#E9EFF7"/>
<circle cx="1188" cy="60.5" r="6" fill="#E9EFF7"/>
<circle cx="1290" cy="171.5" r="6" fill="#E9EFF7"/>
<circle cx="75" cy="271.5" r="6" fill="#E9EFF7"/>
<circle cx="229" cy="99" r="6" fill="#E9EFF7"/>
<circle cx="435" cy="182" r="6" fill="#E9EFF7"/>
<circle cx="505" cy="98" r="6" fill="#E9EFF7"/>
<circle cx="625" cy="189" r="6" fill="#E9EFF7"/>
<circle cx="871" cy="129" r="6" fill="#E9EFF7"/>
<circle cx="965" cy="182" r="6" fill="#E9EFF7"/>
<circle cx="1080" cy="116" r="6" fill="#E9EFF7"/>
<circle cx="1252" cy="78" r="6" fill="#E9EFF7"/>
<path d="M-19 105.5L74.5 271.5L228.5 98.5L435 183L505 98.5L581 269L625 189L741.5 269L870.5 129L965 183L1080 115.5L1212 216.5L1251.5 78L1450 210" stroke="#E9EFF6" stroke-width="2"/>
</svg>
